<?xml version="1.0" encoding="UTF-8" standalone="no"?>
<!DOCTYPE svg PUBLIC "-//W3C//DTD SVG 1.1//EN"
 "http://www.w3.org/Graphics/SVG/1.1/DTD/svg11.dtd">
<!-- Generated by graphviz version 2.38.0 (20140413.2041)
 -->
<!-- Title: G Pages: 1 -->
<svg width="1001pt" height="832pt"
 viewBox="0.00 0.00 1001.33 831.60" xmlns="http://www.w3.org/2000/svg" xmlns:xlink="http://www.w3.org/1999/xlink">
<g id="graph0" class="graph" transform="scale(1 1) rotate(0) translate(4 827.6)">
<title>G</title>
<polygon fill="white" stroke="none" points="-4,4 -4,-827.6 997.33,-827.6 997.33,4 -4,4"/>
<!-- n1 -->
<g id="node1" class="node"><title>n1</title>
<g id="a_node1"><a xlink:href="http://www.purl.org/narci/prov#CraniotomyProcedure" xlink:title="narciprov:CraniotomyProcedure">
<polygon fill="#9fb1fc" stroke="#0000ff" points="488.391,-740.6 296.391,-740.6 296.391,-704.6 488.391,-704.6 488.391,-740.6"/>
<text text-anchor="middle" x="392.391" y="-718.9" font-family="Times,serif" font-size="14.00">narciprov:CraniotomyProcedure</text>
</a>
</g>
</g>
<!-- n6 -->
<g id="node6" class="node"><title>n6</title>
<g id="a_node6"><a xlink:href="http://www.purl.org/narci/prov#Subject" xlink:title="narciprov:Subject">
<ellipse fill="#fffc87" stroke="#808080" cx="287.391" cy="-805.6" rx="73.387" ry="18"/>
<text text-anchor="middle" x="287.391" y="-801.9" font-family="Times,serif" font-size="14.00">narciprov:Subject</text>
</a>
</g>
</g>
<!-- n1&#45;&gt;n6 -->
<g id="edge1" class="edge"><title>n1&#45;&gt;n6</title>
<path fill="none" stroke="#8b0000" d="M370.123,-740.778C354.5,-752.83 333.458,-769.063 316.505,-782.141"/>
<polygon fill="#8b0000" stroke="#8b0000" points="314.332,-779.396 308.552,-788.275 318.608,-784.939 314.332,-779.396"/>
<text text-anchor="middle" x="355.891" y="-761.6" font-family="Times,serif" font-size="10.00" fill="red">used</text>
</g>
<!-- n7 -->
<g id="node7" class="node"><title>n7</title>
<g id="a_node7"><a xlink:href="http://www.purl.org/narci/prov#CraniotomyProtocol" xlink:title="narciprov:CraniotomyProtocol">
<ellipse fill="#fffc87" stroke="#808080" cx="497.391" cy="-805.6" rx="118.879" ry="18"/>
<text text-anchor="middle" x="497.391" y="-801.9" font-family="Times,serif" font-size="14.00">narciprov:CraniotomyProtocol</text>
</a>
</g>
</g>
<!-- n1&#45;&gt;n7 -->
<g id="edge5" class="edge"><title>n1&#45;&gt;n7</title>
<path fill="none" stroke="#8b0000" d="M414.659,-740.778C429.935,-752.563 450.392,-768.344 467.142,-781.265"/>
<polygon fill="#8b0000" stroke="#8b0000" points="465.46,-784.388 475.515,-787.724 469.735,-778.845 465.46,-784.388"/>
<text text-anchor="middle" x="460.891" y="-761.6" font-family="Times,serif" font-size="10.00" fill="red">used</text>
</g>
<!-- n2 -->
<g id="node2" class="node"><title>n2</title>
<g id="a_node2"><a xlink:href="http://www.purl.org/narci/prov#TwoPhotonImaging" xlink:title="narciprov:TwoPhotonImaging">
<polygon fill="#9fb1fc" stroke="#0000ff" points="708.891,-574.6 527.891,-574.6 527.891,-538.6 708.891,-538.6 708.891,-574.6"/>
<text text-anchor="middle" x="618.391" y="-552.9" font-family="Times,serif" font-size="14.00">narciprov:TwoPhotonImaging</text>
</a>
</g>
</g>
<!-- n8 -->
<g id="node8" class="node"><title>n8</title>
<g id="a_node8"><a xlink:href="http://www.purl.org/narci/prov#Craniotomy" xlink:title="narciprov:Craniotomy">
<ellipse fill="#fffc87" stroke="#808080" cx="392.391" cy="-639.6" rx="89.0842" ry="18"/>
<text text-anchor="middle" x="392.391" y="-635.9" font-family="Times,serif" font-size="14.00">narciprov:Craniotomy</text>
</a>
</g>
</g>
<!-- n2&#45;&gt;n8 -->
<g id="edge2" class="edge"><title>n2&#45;&gt;n8</title>
<path fill="none" stroke="#8b0000" d="M570.738,-574.679C533.648,-587.973 482.246,-606.395 444.15,-620.049"/>
<polygon fill="#8b0000" stroke="#8b0000" points="442.508,-616.92 434.275,-623.588 444.87,-623.509 442.508,-616.92"/>
<text text-anchor="middle" x="528.891" y="-595.6" font-family="Times,serif" font-size="10.00" fill="red">used</text>
</g>
<!-- n9 -->
<g id="node9" class="node"><title>n9</title>
<g id="a_node9"><a xlink:href="http://www.purl.org/narci/prov#AnaesthesiaProtocol" xlink:title="narciprov:AnaesthesiaProtocol">
<ellipse fill="#fffc87" stroke="#808080" cx="618.391" cy="-639.6" rx="118.879" ry="18"/>
<text text-anchor="middle" x="618.391" y="-635.9" font-family="Times,serif" font-size="14.00">narciprov:AnaesthesiaProtocol</text>
</a>
</g>
</g>
<!-- n2&#45;&gt;n9 -->
<g id="edge4" class="edge"><title>n2&#45;&gt;n9</title>
<path fill="none" stroke="#8b0000" d="M618.391,-574.778C618.391,-585.41 618.391,-599.294 618.391,-611.396"/>
<polygon fill="#8b0000" stroke="#8b0000" points="614.891,-611.447 618.391,-621.447 621.891,-611.447 614.891,-611.447"/>
<text text-anchor="middle" x="627.891" y="-595.6" font-family="Times,serif" font-size="10.00" fill="red">used</text>
</g>
<!-- n10 -->
<g id="node10" class="node"><title>n10</title>
<g id="a_node10"><a xlink:href="http://www.purl.org/narci/prov#TwoImagingSystem" xlink:title="narciprov:TwoImagingSystem">
<ellipse fill="#fffc87" stroke="#808080" cx="874.391" cy="-639.6" rx="118.879" ry="18"/>
<text text-anchor="middle" x="874.391" y="-635.9" font-family="Times,serif" font-size="14.00">narciprov:TwoImagingSystem</text>
</a>
</g>
</g>
<!-- n2&#45;&gt;n10 -->
<g id="edge3" class="edge"><title>n2&#45;&gt;n10</title>
<path fill="none" stroke="#8b0000" d="M672.369,-574.679C714.286,-587.942 772.339,-606.31 815.461,-619.954"/>
<polygon fill="#8b0000" stroke="#8b0000" points="814.662,-623.372 825.252,-623.052 816.773,-616.698 814.662,-623.372"/>
<text text-anchor="middle" x="771.891" y="-595.6" font-family="Times,serif" font-size="10.00" fill="red">used</text>
</g>
<!-- n3 -->
<g id="node3" class="node"><title>n3</title>
<g id="a_node3"><a xlink:href="http://www.purl.org/narci/prov#VisualStimulation" xlink:title="narciprov:VisualStimulation">
<polygon fill="#9fb1fc" stroke="#0000ff" points="450.891,-491.6 279.891,-491.6 279.891,-455.6 450.891,-455.6 450.891,-491.6"/>
<text text-anchor="middle" x="365.391" y="-469.9" font-family="Times,serif" font-size="14.00">narciprov:VisualStimulation</text>
</a>
</g>
</g>
<!-- n3&#45;&gt;n2 -->
<g id="edge14" class="edge"><title>n3&#45;&gt;n2</title>
<path fill="none" stroke="black" d="M418.737,-491.679C458.683,-504.468 513.457,-522.005 555.531,-535.475"/>
<polygon fill="black" stroke="black" points="554.527,-538.828 565.118,-538.544 556.662,-532.162 554.527,-538.828"/>
<text text-anchor="middle" x="539.891" y="-512.6" font-family="Times,serif" font-size="10.00">wasInformedBy</text>
</g>
<!-- n11 -->
<g id="node11" class="node"><title>n11</title>
<g id="a_node11"><a xlink:href="http://www.purl.org/narci/prov#VisualStimulus" xlink:title="narciprov:VisualStimulus">
<ellipse fill="#fffc87" stroke="#808080" cx="101.391" cy="-556.6" rx="101.282" ry="18"/>
<text text-anchor="middle" x="101.391" y="-552.9" font-family="Times,serif" font-size="14.00">narciprov:VisualStimulus</text>
</a>
</g>
</g>
<!-- n3&#45;&gt;n11 -->
<g id="edge6" class="edge"><title>n3&#45;&gt;n11</title>
<path fill="none" stroke="#8b0000" d="M309.726,-491.679C265.613,-505.214 204.169,-524.066 159.445,-537.788"/>
<polygon fill="#8b0000" stroke="#8b0000" points="158.418,-534.442 149.884,-540.721 160.471,-541.134 158.418,-534.442"/>
<text text-anchor="middle" x="258.891" y="-512.6" font-family="Times,serif" font-size="10.00" fill="red">used</text>
</g>
<!-- n12 -->
<g id="node12" class="node"><title>n12</title>
<g id="a_node12"><a xlink:href="http://www.purl.org/narci/prov#VisualStimulusPresentation" xlink:title="narciprov:VisualStimulusPresentation">
<ellipse fill="#fffc87" stroke="#808080" cx="365.391" cy="-556.6" rx="144.874" ry="18"/>
<text text-anchor="middle" x="365.391" y="-552.9" font-family="Times,serif" font-size="14.00">narciprov:VisualStimulusPresentation</text>
</a>
</g>
</g>
<!-- n3&#45;&gt;n12 -->
<g id="edge9" class="edge"><title>n3&#45;&gt;n12</title>
<path fill="none" stroke="#8b0000" d="M365.391,-491.778C365.391,-502.41 365.391,-516.294 365.391,-528.396"/>
<polygon fill="#8b0000" stroke="#8b0000" points="361.891,-528.447 365.391,-538.447 368.891,-528.447 361.891,-528.447"/>
<text text-anchor="middle" x="374.891" y="-512.6" font-family="Times,serif" font-size="10.00" fill="red">used</text>
</g>
<!-- n4 -->
<g id="node4" class="node"><title>n4</title>
<g id="a_node4"><a xlink:href="http://www.purl.org/narci/prov#RegionClassification" xlink:title="narciprov:RegionClassification">
<polygon fill="#9fb1fc" stroke="#0000ff" points="710.891,-285 525.891,-285 525.891,-249 710.891,-249 710.891,-285"/>
<text text-anchor="middle" x="618.391" y="-263.3" font-family="Times,serif" font-size="14.00">narciprov:RegionClassification</text>
</a>
</g>
</g>
<!-- n14 -->
<g id="node14" class="node"><title>n14</title>
<g id="a_node14"><a xlink:href="http://www.purl.org/narci/prov#RegionOfInterest" xlink:title="narciprov:RegionOfInterest">
<ellipse fill="#fffc87" stroke="#808080" cx="618.391" cy="-350" rx="107.781" ry="18"/>
<text text-anchor="middle" x="618.391" y="-346.3" font-family="Times,serif" font-size="14.00">narciprov:RegionOfInterest</text>
</a>
</g>
</g>
<!-- n4&#45;&gt;n14 -->
<g id="edge8" class="edge"><title>n4&#45;&gt;n14</title>
<path fill="none" stroke="#8b0000" d="M618.391,-285.178C618.391,-295.81 618.391,-309.694 618.391,-321.796"/>
<polygon fill="#8b0000" stroke="#8b0000" points="614.891,-321.847 618.391,-331.847 621.891,-321.847 614.891,-321.847"/>
<text text-anchor="middle" x="627.891" y="-306" font-family="Times,serif" font-size="10.00" fill="red">used</text>
</g>
<!-- n5 -->
<g id="node5" class="node"><title>n5</title>
<g id="a_node5"><a xlink:href="http://www.purl.org/narci/prov#TimeSeriesExtract" xlink:title="narciprov:TimeSeriesExtract">
<polygon fill="#9fb1fc" stroke="#0000ff" points="704.891,-119 531.891,-119 531.891,-83 704.891,-83 704.891,-119"/>
<text text-anchor="middle" x="618.391" y="-97.3" font-family="Times,serif" font-size="14.00">narciprov:TimeSeriesExtract</text>
</a>
</g>
</g>
<!-- n15 -->
<g id="node15" class="node"><title>n15</title>
<g id="a_node15"><a xlink:href="http://www.purl.org/narci/prov#CellFromRegionOfInterest" xlink:title="narciprov:CellFromRegionOfInterest">
<ellipse fill="#fffc87" stroke="#808080" cx="618.391" cy="-184" rx="141.875" ry="18"/>
<text text-anchor="middle" x="618.391" y="-180.3" font-family="Times,serif" font-size="14.00">narciprov:CellFromRegionOfInterest</text>
</a>
</g>
</g>
<!-- n5&#45;&gt;n15 -->
<g id="edge7" class="edge"><title>n5&#45;&gt;n15</title>
<path fill="none" stroke="#8b0000" d="M618.391,-119.178C618.391,-129.81 618.391,-143.694 618.391,-155.796"/>
<polygon fill="#8b0000" stroke="#8b0000" points="614.891,-155.847 618.391,-165.847 621.891,-155.847 614.891,-155.847"/>
<text text-anchor="middle" x="627.891" y="-140" font-family="Times,serif" font-size="10.00" fill="red">used</text>
</g>
<!-- n8&#45;&gt;n1 -->
<g id="edge10" class="edge"><title>n8&#45;&gt;n1</title>
<path fill="none" stroke="darkgreen" d="M392.391,-657.778C392.391,-668.41 392.391,-682.294 392.391,-694.396"/>
<polygon fill="darkgreen" stroke="darkgreen" points="388.891,-694.447 392.391,-704.447 395.891,-694.447 388.891,-694.447"/>
<text text-anchor="middle" x="427.391" y="-678.6" font-family="Times,serif" font-size="10.00" fill="darkgreen">wasGeneratedBy</text>
</g>
<!-- n13 -->
<g id="node13" class="node"><title>n13</title>
<g id="a_node13"><a xlink:href="http://www.purl.org/narci/prov#ImageSequence" xlink:title="narciprov:ImageSequence">
<ellipse fill="#fffc87" stroke="#808080" cx="618.391" cy="-473.6" rx="102.882" ry="18"/>
<text text-anchor="middle" x="618.391" y="-469.9" font-family="Times,serif" font-size="14.00">narciprov:ImageSequence</text>
</a>
</g>
</g>
<!-- n13&#45;&gt;n2 -->
<g id="edge11" class="edge"><title>n13&#45;&gt;n2</title>
<path fill="none" stroke="darkgreen" d="M618.391,-491.778C618.391,-502.41 618.391,-516.294 618.391,-528.396"/>
<polygon fill="darkgreen" stroke="darkgreen" points="614.891,-528.447 618.391,-538.447 621.891,-528.447 614.891,-528.447"/>
<text text-anchor="middle" x="653.391" y="-512.6" font-family="Times,serif" font-size="10.00" fill="darkgreen">wasGeneratedBy</text>
</g>
<!-- b1 -->
<g id="node17" class="node"><title>b1</title>
<ellipse fill="gray" stroke="gray" cx="618.391" cy="-416.8" rx="1.8" ry="1.8"/>
</g>
<!-- n14&#45;&gt;b1 -->
<g id="edge15" class="edge"><title>n14&#45;&gt;b1</title>
<path fill="none" stroke="black" d="M618.391,-368.025C618.391,-384.825 618.391,-408.803 618.391,-414.535"/>
<text text-anchor="middle" x="653.391" y="-389" font-family="Times,serif" font-size="10.00">wasDerivedFrom</text>
</g>
<!-- n15&#45;&gt;n4 -->
<g id="edge12" class="edge"><title>n15&#45;&gt;n4</title>
<path fill="none" stroke="darkgreen" d="M618.391,-202.178C618.391,-212.81 618.391,-226.694 618.391,-238.796"/>
<polygon fill="darkgreen" stroke="darkgreen" points="614.891,-238.847 618.391,-248.847 621.891,-238.847 614.891,-238.847"/>
<text text-anchor="middle" x="653.391" y="-223" font-family="Times,serif" font-size="10.00" fill="darkgreen">wasGeneratedBy</text>
</g>
<!-- n16 -->
<g id="node16" class="node"><title>n16</title>
<g id="a_node16"><a xlink:href="http://www.purl.org/narci/prov#FluorescenceActivity" xlink:title="narciprov:FluorescenceActivity">
<ellipse fill="#fffc87" stroke="#808080" cx="618.391" cy="-18" rx="122.379" ry="18"/>
<text text-anchor="middle" x="618.391" y="-14.3" font-family="Times,serif" font-size="14.00">narciprov:FluorescenceActivity</text>
</a>
</g>
</g>
<!-- n16&#45;&gt;n5 -->
<g id="edge13" class="edge"><title>n16&#45;&gt;n5</title>
<path fill="none" stroke="darkgreen" d="M618.391,-36.178C618.391,-46.8097 618.391,-60.694 618.391,-72.7965"/>
<polygon fill="darkgreen" stroke="darkgreen" points="614.891,-72.8467 618.391,-82.8467 621.891,-72.8468 614.891,-72.8467"/>
<text text-anchor="middle" x="653.391" y="-57" font-family="Times,serif" font-size="10.00" fill="darkgreen">wasGeneratedBy</text>
</g>
<!-- b1&#45;&gt;n13 -->
<g id="edge16" class="edge"><title>b1&#45;&gt;n13</title>
<path fill="none" stroke="black" d="M618.391,-418.751C618.391,-422.115 618.391,-433.875 618.391,-445.55"/>
<polygon fill="black" stroke="black" points="614.891,-445.575 618.391,-455.575 621.891,-445.575 614.891,-445.575"/>
</g>
</g>
</svg>
